<?xml version="1.0" encoding="UTF-8"?>
<svg id="Layer_1" data-name="Layer 1" xmlns="http://www.w3.org/2000/svg" viewBox="0 0 1024 1024">
  <defs>
    <style>
      .cls-1 {
        fill: #5f63aa;
        stroke: #000;
        stroke-miterlimit: 10;
        stroke-width: .75px;
      }
    </style>
  </defs>
  <polygon class="cls-1" points="907.91 479.73 926.5 512 907.91 544.27 870.64 544.27 871.62 545.97 871.62 607.1 870.64 608.81 871.62 608.81 871.62 673.35 870.64 673.35 871.62 675 871.62 736.18 870.64 737.88 871.62 737.88 871.62 802.42 870.64 802.42 871.62 804.08 871.62 931.5 613.58 931.5 613.58 925.18 609.95 931.5 423.68 931.5 420.05 925.18 420.05 931.5 355.54 931.5 355.54 673.35 97.5 673.35 97.5 92.5 609.95 92.5 613.58 98.82 613.58 221.58 684.41 221.58 703.04 253.85 684.41 286.12 549.07 286.12 549.07 157.04 162.01 157.04 162.01 608.81 355.54 608.81 355.54 350.65 907.91 350.65 926.5 382.92 907.91 415.19 420.05 415.19 420.05 608.81 549.07 608.81 549.07 479.73 684.45 479.73 703.04 512 684.45 544.27 613.58 544.27 613.58 667.03 609.95 673.35 420.05 673.35 420.05 873.33 423.72 866.96 609.91 866.96 613.58 873.33 613.58 866.96 807.11 866.96 807.11 479.73 907.91 479.73"/>
</svg>